<?xml version="1.0" standalone="no"?>
<!DOCTYPE svg PUBLIC "-//W3C//DTD SVG 20010904//EN"
 "http://www.w3.org/TR/2001/REC-SVG-20010904/DTD/svg10.dtd">
<svg version="1.0" xmlns="http://www.w3.org/2000/svg"
 width="260.000000pt" height="260.000000pt" viewBox="0 0 260.000000 260.000000"
 preserveAspectRatio="xMidYMid meet">
<metadata>
Created by potrace 1.11, written by Peter Selinger 2001-2013
</metadata>
<g transform="translate(0.000000,260.000000) scale(0.100000,-0.100000)"
fill="#000000" stroke="none">
<path d="M667 2099 c7 -7 15 -10 18 -7 3 3 -2 9 -12 12 -14 6 -15 5 -6 -5z"/>
<path d="M715 2099 c-19 -9 -19 -9 2 -5 12 2 24 -1 27 -8 3 -8 5 -8 5 1 1 17
-11 22 -34 12z"/>
<path d="M1868 2098 c5 -5 16 -8 23 -6 8 3 3 7 -10 11 -17 4 -21 3 -13 -5z"/>
<path d="M1974 2091 c11 -17 -24 -26 -46 -12 -11 7 -17 8 -14 3 3 -5 -21 -10
-57 -11 -95 -4 -115 -6 -124 -15 -4 -5 -2 -6 5 -2 6 4 12 2 12 -3 0 -6 5 -11
11 -11 5 0 8 4 5 9 -4 5 2 8 11 7 28 -4 17 -21 -14 -22 -106 -6 -125 -9 -130
-17 -3 -6 -1 -7 4 -4 6 4 16 0 23 -8 10 -12 8 -13 -9 -10 -12 2 -21 -1 -21 -6
0 -6 -4 -8 -9 -5 -13 8 -42 -4 -35 -15 3 -5 0 -17 -5 -26 -6 -10 -11 -13 -11
-7 0 15 -27 13 -27 -2 0 -7 5 -11 11 -8 6 3 0 -4 -14 -15 -14 -11 -29 -21 -33
-21 -4 0 -7 -6 -6 -12 4 -36 -2 -56 -18 -54 -16 1 -21 -17 -26 -108 -1 -25 -7
-41 -17 -43 -13 -4 -13 -3 0 6 12 9 13 12 1 20 -10 7 -11 9 -1 13 10 3 11 9 2
24 -6 10 -12 15 -13 9 -2 -17 -7 -167 -8 -247 -1 -60 -4 -78 -15 -78 -8 0 -16
6 -19 13 -2 6 -5 -8 -6 -33 -5 -86 -1 -145 9 -148 6 -2 10 -8 10 -13 0 -6 -4
-7 -10 -4 -5 3 -7 0 -4 -9 3 -8 11 -13 19 -10 7 3 15 -2 19 -11 3 -9 2 -13 -4
-10 -6 4 -5 -6 2 -22 18 -42 30 -52 24 -20 -3 15 -1 25 3 23 4 -3 8 -22 8 -43
1 -62 11 -95 33 -110 14 -10 19 -21 15 -34 -5 -15 -1 -19 19 -19 14 0 26 -4
26 -10 0 -5 -5 -10 -10 -10 -6 0 -5 -8 2 -20 8 -12 15 -15 19 -8 4 6 9 3 13
-10 4 -11 16 -22 26 -25 13 -3 18 -11 14 -21 -4 -11 -1 -16 11 -16 9 0 13 -4
10 -10 -3 -5 -1 -10 4 -10 6 0 11 5 11 12 0 6 3 8 7 4 5 -4 -1 -14 -12 -23
-20 -14 -20 -14 0 -11 16 2 19 -3 20 -32 0 -21 6 -38 15 -42 13 -6 13 -7 0 -7
-12 -1 -15 -14 -13 -58 1 -32 -2 -62 -7 -68 -4 -5 -6 -17 -5 -25 2 -11 -7 -15
-36 -14 -22 1 -42 -2 -45 -7 -3 -5 5 -9 18 -10 22 0 22 -1 3 -8 -12 -5 -26 -4
-34 3 -11 8 -13 8 -7 -1 7 -13 0 -16 -37 -16 -10 0 -16 -6 -15 -16 2 -12 -4
-16 -25 -14 -15 1 -26 -1 -23 -5 2 -4 -29 -7 -70 -6 -48 1 -74 -3 -74 -10 0
-7 -3 -8 -8 -1 -4 6 -15 11 -24 12 -10 0 -27 1 -39 2 -13 1 -18 6 -14 14 4 6
0 4 -8 -6 -13 -16 -15 -16 -21 -1 -9 22 -8 26 6 18 7 -4 8 -3 4 5 -6 8 -12 9
-20 2 -7 -6 -16 -7 -20 -3 -12 12 -30 9 -44 -8 -10 -13 -11 -13 -6 3 4 10 3
17 -2 16 -31 -5 -54 3 -54 19 0 17 -5 19 -66 23 -14 1 -22 4 -18 8 12 8 16 31
5 31 -5 0 -8 45 -7 100 1 85 3 100 17 100 15 0 35 49 30 73 -1 5 3 6 8 2 6 -3
8 -12 4 -20 -3 -8 0 -15 7 -15 6 0 8 5 5 10 -3 6 -2 10 4 10 6 0 8 7 4 16 -5
13 -2 15 18 9 23 -7 23 -7 4 8 -11 9 -17 19 -12 23 4 4 7 2 7 -4 0 -7 5 -12
11 -12 5 0 7 5 4 10 -3 6 -1 10 4 10 6 0 10 3 10 8 -1 4 -1 16 0 27 1 17 3 18
11 5 7 -11 10 -11 10 -2 0 7 5 10 10 7 7 -4 9 3 6 19 -3 17 -1 24 6 20 6 -4 8
1 3 15 -5 16 -2 21 13 21 15 0 19 8 21 46 0 25 6 54 12 63 8 13 9 12 4 -6 -4
-14 -2 -23 4 -23 10 0 15 14 12 33 0 4 3 7 8 7 4 0 6 11 4 25 -4 20 -2 24 14
21 15 -3 20 2 20 22 1 15 2 59 4 97 2 74 -6 115 -23 115 -7 0 -7 -4 1 -13 8
-10 7 -14 -3 -14 -10 0 -14 17 -14 61 -1 55 0 59 13 42 13 -18 14 -18 12 2 0
11 -6 20 -12 19 -5 -1 -11 14 -11 33 -5 100 -8 119 -18 113 -8 -5 -8 -3 0 8
12 17 12 38 0 42 -5 1 -10 -6 -12 -16 -7 -49 -13 -20 -17 90 -1 16 -4 19 -13
12 -14 -12 -29 5 -19 21 3 6 1 10 -4 10 -6 0 -11 11 -11 25 0 14 -5 25 -11 25
-5 0 -7 -4 -4 -10 3 -5 1 -10 -4 -10 -6 0 -12 5 -12 10 -1 6 -3 15 -4 20 -1 6
-3 15 -4 21 0 6 -9 8 -20 4 -15 -4 -18 -1 -16 20 3 22 0 24 -21 21 -15 -3 -27
1 -34 12 -5 10 -10 12 -10 5 0 -7 -6 -13 -12 -13 -7 1 -2 10 12 21 14 12 18
20 10 19 -8 -1 -36 -2 -62 -1 -41 1 -48 4 -48 21 0 13 -7 20 -20 20 -11 0 -20
-6 -20 -12 0 -9 -3 -9 -9 1 -5 8 -18 12 -30 8 -12 -3 -28 1 -36 10 -8 8 -15
10 -15 4 0 -7 -30 -11 -81 -11 -61 0 -78 -3 -73 -12 6 -10 4 -10 -7 -2 -16 13
-51 15 -43 2 3 -4 12 -8 20 -8 8 0 14 -4 14 -8 0 -4 -9 -8 -20 -8 -11 0 -20 4
-20 8 0 4 -5 8 -11 8 -5 0 -7 -4 -4 -10 6 -9 -38 -15 -74 -11 -7 2 -10 -2 -6
-8 3 -6 1 -11 -5 -11 -6 0 -8 -4 -5 -10 3 -5 -2 -10 -12 -10 -10 0 -23 -10
-28 -22 -6 -13 -17 -22 -27 -20 -9 1 -20 -3 -24 -9 -4 -7 -3 -9 4 -6 6 5 8 -1
5 -14 -4 -15 -8 -17 -14 -8 -6 10 -10 7 -17 -11 -5 -14 -8 -28 -5 -33 2 -4 1
-7 -4 -6 -20 3 -34 -2 -28 -11 4 -6 11 -7 17 -4 7 4 8 2 4 -4 -4 -6 -12 -9
-19 -6 -8 3 -14 -4 -14 -18 -4 -62 -8 -75 -23 -71 -13 3 -15 -6 -15 -52 1 -31
-2 -58 -7 -61 -4 -3 -3 -16 2 -29 5 -14 6 -25 1 -25 -11 0 -8 -64 4 -72 6 -5
6 -8 -2 -8 -6 0 -10 -9 -8 -20 2 -11 0 -18 -4 -15 -12 7 -27 -27 -30 -64 0
-11 -9 -22 -19 -25 -12 -4 -18 -16 -18 -40 0 -19 4 -33 8 -30 4 2 5 13 3 24
-5 24 8 26 25 5 11 -13 10 -14 -2 -10 -8 3 -15 0 -16 -7 0 -7 -3 -23 -6 -35
-2 -13 -2 -22 2 -22 21 3 29 -3 28 -23 -1 -13 4 -23 11 -23 21 0 28 -16 28
-68 1 -44 4 -52 18 -49 18 3 20 -17 2 -30 -6 -4 -2 -8 9 -8 13 0 17 -5 13 -19
-2 -10 -1 -25 4 -32 7 -11 9 -11 9 -1 0 7 4 11 9 7 6 -3 8 -14 6 -25 -2 -12 2
-20 10 -20 8 0 11 -7 8 -20 -3 -12 0 -20 6 -20 7 0 9 6 6 13 -4 6 1 3 9 -8 9
-11 14 -25 12 -32 -4 -8 3 -13 19 -13 18 0 25 -5 25 -20 0 -11 3 -19 8 -19 4
1 15 1 25 0 15 -1 16 -5 7 -21 -10 -19 -3 -24 30 -22 10 1 6 -63 -4 -70 -7 -5
-7 -8 2 -8 9 0 12 -16 10 -59 -1 -33 -6 -57 -10 -55 -5 3 -8 0 -8 -6 0 -6 -4
-8 -10 -5 -5 3 -10 -3 -10 -14 0 -19 -16 -27 -43 -22 -4 1 -7 -6 -5 -15 2 -9
-3 -19 -9 -21 -7 -3 -13 0 -13 7 0 6 4 8 10 5 6 -4 7 1 3 11 -4 11 -8 13 -11
6 -2 -7 -7 -10 -12 -7 -4 3 -7 -3 -6 -12 1 -12 -8 -16 -36 -17 -20 -1 -40 -5
-44 -9 -4 -4 -13 -2 -20 4 -8 7 -14 7 -19 -1 -4 -6 -3 -10 2 -9 4 1 10 0 13
-1 22 -8 39 -7 33 3 -5 8 -2 8 9 0 8 -7 19 -9 23 -5 5 4 5 2 2 -4 -4 -7 -23
-10 -42 -8 -20 1 -33 0 -31 -5 7 -11 -38 -8 -46 4 -5 6 -8 6 -8 -2 0 -6 -9 -9
-20 -6 -11 3 -28 -1 -37 -8 -9 -8 -14 -9 -11 -4 4 6 -4 10 -20 9 -22 -1 -27
-6 -30 -30 -2 -29 -4 -277 -3 -367 l1 -48 53 1 c28 1 99 1 157 1 58 0 138 0
178 2 39 1 72 -1 72 -5 0 -3 8 -4 18 -2 25 7 222 10 222 4 0 -4 456 -4 845 0
55 1 105 1 110 0 6 -1 32 -1 59 0 138 5 186 4 186 -2 0 -3 8 -4 18 -2 33 8
222 9 222 1 0 -5 4 -5 10 -2 5 3 58 5 117 5 60 -1 122 -1 138 1 17 1 39 2 50
2 20 -1 20 6 20 217 0 120 -3 216 -7 214 -3 -2 -9 0 -12 5 -3 4 -17 9 -31 9
-15 0 -22 -5 -18 -12 4 -6 -1 -5 -10 3 -10 8 -20 11 -24 8 -3 -4 -12 -2 -20 4
-9 8 -13 8 -13 0 0 -7 -8 -8 -24 -1 -17 6 -26 5 -30 -3 -3 -9 -5 -8 -5 1 -1 7
-5 10 -11 7 -5 -3 -10 -1 -10 5 0 6 12 8 29 5 17 -3 33 0 37 7 5 7 3 8 -6 3
-7 -4 -16 -2 -21 6 -7 11 -9 11 -9 1 0 -9 -5 -10 -18 -3 -13 7 -23 6 -32 -2
-7 -7 -10 -7 -7 -1 4 7 -6 11 -26 12 -19 0 -38 9 -49 21 -17 23 -44 29 -32 9
5 -10 4 -10 -6 -1 -11 10 -11 15 1 29 9 12 10 15 2 10 -8 -4 -13 -2 -13 4 0 6
-5 8 -12 4 -9 -5 -9 -2 1 9 14 18 2 24 -15 7 -7 -7 -10 -2 -10 15 0 27 6 31
22 15 7 -7 11 -6 11 4 0 8 -3 15 -6 14 -20 -2 -26 5 -27 32 -2 27 0 29 14 18
14 -11 14 -9 -1 14 -11 18 -13 29 -6 34 8 4 7 9 -2 15 -11 7 -11 9 -1 9 7 0
10 5 6 12 -4 6 -3 8 4 4 6 -3 9 -16 7 -28 -3 -11 -1 -27 3 -34 4 -8 9 8 10 38
2 52 15 79 35 75 7 -1 11 6 9 16 -3 15 14 23 41 18 5 -1 6 7 2 18 -4 13 0 20
15 24 12 3 20 13 20 27 0 16 4 21 16 16 14 -5 15 -4 4 9 -7 9 -10 19 -6 22 4
4 11 1 16 -7 8 -12 10 -11 11 5 3 58 7 77 17 87 9 9 10 6 7 -10 -2 -12 0 -24
5 -27 4 -3 7 3 5 12 -1 10 0 22 3 27 3 6 7 28 9 50 6 71 7 75 16 69 4 -2 5
-14 2 -26 -2 -12 -2 -16 1 -9 3 6 9 10 13 8 4 -3 8 5 8 17 5 78 7 87 14 76 4
-7 5 -17 3 -21 -3 -4 1 -5 9 -2 16 6 20 54 5 54 -5 0 -6 -5 -2 -12 5 -7 3 -8
-6 -3 -10 6 -9 11 4 21 12 8 14 14 6 19 -8 5 -8 11 -1 19 6 7 7 16 3 20 -10
11 -9 30 3 39 6 5 4 7 -5 6 -34 -3 -40 1 -36 26 3 14 0 25 -5 25 -5 0 -9 5 -9
11 0 5 3 8 8 6 4 -3 7 24 7 59 1 35 -3 64 -8 64 -4 0 -5 6 -1 12 11 18 12 48
2 42 -5 -4 -7 -12 -4 -20 3 -8 1 -14 -4 -14 -8 0 -9 -6 -10 -62 -1 -18 -3 -19
-10 -8 -5 8 -6 18 -4 22 10 16 11 88 1 88 -5 0 -5 6 2 13 6 8 7 17 3 21 -4 4
-7 15 -8 24 -1 10 -2 27 -3 38 0 14 -7 21 -18 20 -12 -1 -18 7 -19 24 -2 51
-4 60 -15 60 -5 0 -7 -4 -4 -10 3 -5 0 -7 -8 -4 -16 6 -17 35 -2 46 6 4 -5 8
-23 8 -29 0 -32 3 -27 20 5 14 2 20 -9 20 -9 0 -16 7 -16 16 0 8 -4 12 -10 9
-5 -3 -10 -1 -10 4 0 6 -9 11 -20 11 -13 0 -20 7 -20 20 0 17 -7 20 -46 20
-35 0 -45 3 -41 14 8 20 -4 28 -20 15 -10 -9 -13 -8 -13 0 0 7 -8 11 -17 10
-39 -3 -74 2 -68 10 3 5 0 13 -6 17 -8 4 -9 3 -5 -5z m-1099 -40 c3 -5 2 -12
-3 -15 -5 -3 -9 1 -9 9 0 17 3 19 12 6z m1219 -6 c-4 -8 -17 -13 -34 -12 -15
1 -26 6 -23 10 2 4 13 5 23 2 10 -3 21 -1 25 5 9 15 15 12 9 -5z m-1610 -43
c3 -5 -1 -9 -9 -9 -8 0 -12 4 -9 9 3 4 7 8 9 8 2 0 6 -4 9 -8z m1048 -124 c-7
-7 -12 -8 -12 -2 0 6 3 14 7 17 3 4 9 5 12 2 2 -3 -1 -11 -7 -17z m-32 -73 c0
-12 -19 -12 -23 0 -4 9 -1 12 9 8 7 -3 14 -7 14 -8z m930 -300 c0 -2 -6 -5
-13 -8 -8 -3 -14 1 -14 8 0 7 6 11 14 8 7 -3 13 -6 13 -8z m24 -116 c-3 -5
-10 -7 -15 -3 -5 3 -7 10 -3 15 3 5 10 7 15 3 5 -3 7 -10 3 -15z m-2254 -105
c0 -8 -5 -12 -10 -9 -6 4 -8 11 -5 16 9 14 15 11 15 -7z m74 -160 c3 -8 2 -12
-4 -9 -6 3 -10 10 -10 16 0 14 7 11 14 -7z m1221 -75 c11 -17 -1 -21 -15 -4
-8 9 -8 15 -2 15 6 0 14 -5 17 -11z m-495 -209 c0 -5 -5 -10 -11 -10 -5 0 -7
5 -4 10 3 6 8 10 11 10 2 0 4 -4 4 -10z m50 -296 c0 -8 -19 -13 -24 -6 -3 5 1
9 9 9 8 0 15 -2 15 -3z m140 -58 c0 -6 -5 -5 -12 2 -8 8 -17 8 -30 1 -18 -9
-18 -8 -8 10 9 18 13 19 30 8 11 -6 20 -16 20 -21z m1349 -20 c9 -10 8 -15 -2
-19 -8 -3 -13 3 -13 14 0 23 0 23 15 5z m2 -109 c-10 -9 -11 -8 -5 6 3 10 9
15 12 12 3 -3 0 -11 -7 -18z m8 -130 c0 -9 -2 -8 -6 1 -2 6 -10 9 -15 6 -7 -4
-8 -2 -4 5 9 13 26 5 25 -12z m-9 -147 c0 -5 -5 -10 -11 -10 -5 0 -7 5 -4 10
3 6 8 10 11 10 2 0 4 -4 4 -10z"/>
<path d="M2290 1930 c-9 -6 -10 -10 -3 -10 6 0 15 5 18 10 8 12 4 12 -15 0z"/>
<path d="M246 1768 c3 -5 10 -6 15 -3 13 9 11 12 -6 12 -8 0 -12 -4 -9 -9z"/>
<path d="M209 1606 c7 -8 8 -17 3 -20 -5 -3 -8 -15 -6 -28 1 -13 3 -26 3 -30
2 -20 17 -5 17 17 0 14 -4 25 -10 25 -6 0 -5 5 2 12 16 16 15 25 -4 32 -14 5
-15 4 -5 -8z"/>
<path d="M203 1478 c-1 -28 1 -29 10 -12 16 27 17 44 4 44 -7 0 -13 -14 -14
-32z"/>
<path d="M1401 1444 c0 -11 3 -14 6 -6 3 7 2 16 -1 19 -3 4 -6 -2 -5 -13z"/>
<path d="M221 1202 c-1 -8 -6 -10 -13 -6 -10 5 -10 4 -1 -6 15 -16 28 -8 20
12 -4 11 -6 11 -6 0z"/>
<path d="M1586 864 c-5 -14 -4 -15 9 -4 17 14 19 20 6 20 -5 0 -12 -7 -15 -16z"/>
<path d="M455 770 c-3 -6 1 -7 9 -4 18 7 21 14 7 14 -6 0 -13 -4 -16 -10z"/>
<path d="M995 601 c-3 -5 -1 -12 5 -16 5 -3 10 1 10 9 0 18 -6 21 -15 7z"/>
<path d="M1630 590 c0 -5 5 -10 11 -10 5 0 7 5 4 10 -3 6 -8 10 -11 10 -2 0
-4 -4 -4 -10z"/>
<path d="M2245 561 c-9 -15 15 -25 28 -12 9 9 7 10 -7 5 -13 -5 -17 -4 -12 4
4 7 5 12 2 12 -3 0 -7 -4 -11 -9z"/>
<path d="M1425 520 c3 -6 1 -10 -6 -10 -7 0 -10 -3 -6 -6 3 -3 13 -2 22 4 16
8 16 9 1 15 -10 4 -15 3 -11 -3z"/>
<path d="M1465 520 c-3 -5 1 -13 10 -16 22 -9 29 1 11 15 -10 8 -16 9 -21 1z"/>
<path d="M200 516 c0 -2 7 -7 16 -10 8 -3 12 -2 9 4 -6 10 -25 14 -25 6z"/>
<path d="M55 100 c-3 -5 -1 -10 4 -10 6 0 11 5 11 10 0 6 -2 10 -4 10 -3 0 -8
-4 -11 -10z"/>
</g>
</svg>
